# xmcd
#
# Track frame offsets:
# 150
# 11480
# 24592
# 39832
# 50800
# 61362
# 82762
# 111595
# 128785
# 142235
# 146857
# 162070
#
# Disc length: 2351 seconds
#
#
# Revision: 0
# Processed by: cddbd v1.5.2PL0 Copyright (c) Steve Scherf et al.
# Submitted via: FreeRIP 2.944 
#
DISCID=a6092d0c
DTITLE=Toni Naber Quartett - Santa Claus is coming to ...
DYEAR=1900
DGENRE=Blues
TTITLE0=Santa Baby
TTITLE1=Santa Claus is coming to twon
TTITLE2=The Christmas Song
TTITLE3=It's the most wonderful time
TTITLE4=Let it snow
TTITLE5=It is Christmas
TTITLE6=Have yourself a merry little Christmas
TTITLE7=Sleigh ride
TTITLE8=I have your love for Christmas
TTITLE9=Es ist ein Ros entsprungen
TTITLE10=The Chistmas Song
TTITLE11=Silent Night
EXTD=
EXTT0=
EXTT1=
EXTT2=
EXTT3=
EXTT4=
EXTT5=
EXTT6=
EXTT7=
EXTT8=
EXTT9=
EXTT10=
EXTT11=
PLAYORDER=
